<mxfile host="Electron" agent="Mozilla/5.0 (Macintosh; Intel Mac OS X 10_15_7) AppleWebKit/537.36 (KHTML, like Gecko) draw.io/28.1.2 Chrome/138.0.7204.243 Electron/37.4.0 Safari/537.36" version="28.1.2">
  <diagram name="Page-1" id="5bHaEas3I0YWfYlRU1f9">
    <mxGraphModel dx="970" dy="655" grid="0" gridSize="10" guides="1" tooltips="1" connect="1" arrows="1" fold="1" page="1" pageScale="1" pageWidth="1654" pageHeight="1169" math="0" shadow="0">
      <root>
        <mxCell id="0" />
        <mxCell id="1" parent="0" />
        <mxCell id="d6p9PFXJ9PnHoYDoL1wJ-2" value="" style="rounded=1;whiteSpace=wrap;html=1;arcSize=24;absoluteArcSize=1;imageWidth=64;imageHeight=64;strokeWidth=1;fontFamily=Arial;fontColor=#475E74;" parent="1" vertex="1">
          <mxGeometry x="208" y="314" width="1220.66" height="603" as="geometry" />
        </mxCell>
        <mxCell id="d6p9PFXJ9PnHoYDoL1wJ-4" value="&lt;font style=&quot;font-size: 16px;&quot;&gt;Data Product Generator for SAP BDC&lt;/font&gt;&lt;div&gt;&lt;span style=&quot;font-weight: normal;&quot;&gt;(SAP GUI in SAP 7.50/ Fiori UI in SAP BW/4HANA)&lt;/span&gt;&lt;/div&gt;" style="rounded=1;whiteSpace=wrap;html=1;strokeColor=none;fillColor=#D1EFFF;arcSize=12;absoluteArcSize=1;imageWidth=64;imageHeight=64;strokeWidth=1.5;dashed=1;dashPattern=1 2;fontSize=15;fontColor=light-dark(#00185A,#CCDDFF);fontStyle=1;align=center;verticalAlign=middle;fontFamily=Helvetica;gradientColor=none;gradientDirection=south;" parent="1" vertex="1">
          <mxGeometry x="231.33999999999997" y="426.94" width="313.66" height="78" as="geometry" />
        </mxCell>
        <mxCell id="d6p9PFXJ9PnHoYDoL1wJ-5" value="" style="rounded=1;whiteSpace=wrap;html=1;strokeColor=#1B91FF;fillColor=#ffffff;arcSize=24;absoluteArcSize=1;imageWidth=64;imageHeight=64;strokeWidth=1;" parent="1" vertex="1">
          <mxGeometry x="229" y="528" width="313" height="167" as="geometry" />
        </mxCell>
        <mxCell id="d6p9PFXJ9PnHoYDoL1wJ-6" value="InfoProviders" style="rounded=1;whiteSpace=wrap;html=1;strokeColor=none;fillColor=#D1EFFF;arcSize=12;absoluteArcSize=1;imageWidth=64;imageHeight=64;strokeWidth=1.5;dashed=1;dashPattern=1 2;align=center;verticalAlign=middle;fontFamily=Helvetica;fontSize=13;fontColor=light-dark(#00185A,#CCDDFF);fontStyle=1;gradientColor=none;gradientDirection=south;" parent="1" vertex="1">
          <mxGeometry x="247.33" y="635" width="277" height="36" as="geometry" />
        </mxCell>
        <mxCell id="d6p9PFXJ9PnHoYDoL1wJ-7" value="Provisioning Layer" style="rounded=1;whiteSpace=wrap;html=1;strokeColor=none;fillColor=#D1EFFF;arcSize=12;absoluteArcSize=1;imageWidth=64;imageHeight=64;strokeWidth=1.5;dashed=1;dashPattern=1 2;align=center;verticalAlign=middle;fontFamily=Helvetica;fontSize=13;fontColor=light-dark(#00185A,#CCDDFF);fontStyle=1;gradientColor=none;gradientDirection=south;" parent="1" vertex="1">
          <mxGeometry x="247.32999999999998" y="585.5" width="275.66" height="37" as="geometry" />
        </mxCell>
        <mxCell id="d6p9PFXJ9PnHoYDoL1wJ-8" value="&lt;div&gt;&lt;font style=&quot;font-size: 16px;&quot; face=&quot;arial&quot;&gt;&lt;b&gt;SAP Business Warehouse,&lt;/b&gt;&lt;/font&gt;&lt;/div&gt;&lt;div&gt;&lt;font style=&quot;font-size: 16px;&quot; face=&quot;arial&quot;&gt;&lt;b&gt;private cloud edition&lt;/b&gt;&lt;/font&gt;&lt;/div&gt;" style="text;html=1;align=center;verticalAlign=middle;resizable=0;points=[[0,0.5,0,0,0],[0.5,0,0,0,0],[0.5,1,0,0,0],[1,0.5,0,0,0]];autosize=1;strokeColor=none;fillColor=none;fontSize=12;fontColor=#1D2D3E;fontFamily=Helvetica;" parent="1" vertex="1">
          <mxGeometry x="275.15999999999997" y="530" width="221" height="50" as="geometry" />
        </mxCell>
        <mxCell id="d6p9PFXJ9PnHoYDoL1wJ-9" value="&lt;font face=&quot;arial&quot;&gt;&lt;span&gt;Data Product Generator for &lt;br&gt;SAP BW&lt;/span&gt;&lt;/font&gt;" style="text;html=1;align=center;verticalAlign=middle;resizable=0;points=[[0,0.5,0,0,0],[0.5,0,0,0,0],[0.5,1,0,0,0],[1,0.5,0,0,0]];autosize=1;strokeColor=none;fillColor=none;fontSize=12;fontColor=light-dark(#00185A,#C5D9FF);fontFamily=Helvetica;" parent="1" vertex="1">
          <mxGeometry x="404" y="706" width="163" height="41" as="geometry" />
        </mxCell>
        <mxCell id="d6p9PFXJ9PnHoYDoL1wJ-10" value="&lt;font face=&quot;arial&quot;&gt;&lt;span&gt;Expose InfoProvider Data&lt;/span&gt;&lt;/font&gt;" style="text;html=1;align=center;verticalAlign=middle;resizable=0;points=[[0,0.5,0,0,0],[0.5,0,0,0,0],[0.5,1,0,0,0],[1,0.5,0,0,0]];autosize=1;strokeColor=none;fillColor=none;fontSize=12;fontColor=light-dark(#00185A,#C5D9FF);fontFamily=Helvetica;" parent="1" vertex="1">
          <mxGeometry x="404" y="751.5" width="155" height="26" as="geometry" />
        </mxCell>
        <mxCell id="d6p9PFXJ9PnHoYDoL1wJ-11" value="" style="rounded=1;whiteSpace=wrap;html=1;strokeColor=#1B91FF;fillColor=#ffffff;arcSize=24;absoluteArcSize=1;imageWidth=64;imageHeight=64;strokeWidth=1;" parent="1" vertex="1">
          <mxGeometry x="580.41" y="419" width="513.5" height="474" as="geometry" />
        </mxCell>
        <mxCell id="d6p9PFXJ9PnHoYDoL1wJ-13" value="" style="rounded=1;whiteSpace=wrap;html=1;strokeColor=none;fillColor=#D1EFFF;arcSize=12;absoluteArcSize=1;imageWidth=64;imageHeight=64;strokeWidth=1.5;dashed=1;dashPattern=1 2;align=center;verticalAlign=middle;fontFamily=Helvetica;fontSize=11;fontColor=light-dark(#00185A,#CCDDFF);fontStyle=1;gradientColor=none;gradientDirection=south;" parent="1" vertex="1">
          <mxGeometry x="593.66" y="465" width="479.13" height="189" as="geometry" />
        </mxCell>
        <mxCell id="d6p9PFXJ9PnHoYDoL1wJ-14" value="&lt;div&gt;&lt;br&gt;&lt;/div&gt;" style="rounded=1;whiteSpace=wrap;html=1;strokeColor=none;fillColor=#D1EFFF;arcSize=12;absoluteArcSize=1;imageWidth=64;imageHeight=64;strokeWidth=1.5;dashed=1;dashPattern=1 2;align=center;verticalAlign=middle;fontFamily=Helvetica;fontSize=11;fontColor=light-dark(#00185A,#CCDDFF);fontStyle=1;gradientColor=none;gradientDirection=south;" parent="1" vertex="1">
          <mxGeometry x="592.66" y="665" width="480.34" height="160" as="geometry" />
        </mxCell>
        <mxCell id="d6p9PFXJ9PnHoYDoL1wJ-17" value="" style="rounded=1;whiteSpace=wrap;html=1;strokeColor=none;fillColor=#FFFFFF;arcSize=15;absoluteArcSize=1;imageWidth=64;imageHeight=64;strokeWidth=1.5;fontColor=#00185A;align=center;verticalAlign=middle;spacingTop=0;spacing=0;fontFamily=Arial;fontSize=12;fontStyle=0;" parent="1" vertex="1">
          <mxGeometry x="619" y="708" width="198" height="62" as="geometry" />
        </mxCell>
        <mxCell id="d6p9PFXJ9PnHoYDoL1wJ-18" value="&lt;font face=&quot;arial&quot;&gt;&lt;b&gt;SAP Datasphere - Object Store&amp;nbsp;&lt;/b&gt;&lt;/font&gt;&lt;div&gt;&lt;font face=&quot;arial&quot;&gt;&lt;b&gt;SAP-managed data products &amp;amp; customer-managed data products&lt;/b&gt;&lt;/font&gt;&lt;/div&gt;" style="text;html=1;align=left;verticalAlign=middle;resizable=0;points=[[0,0.5,0,0,0],[0.5,0,0,0,0],[0.5,1,0,0,0],[1,0.5,0,0,0]];autosize=1;strokeColor=none;fillColor=none;fontSize=12;fontColor=light-dark(#00185A,#C5D9FF);fontFamily=Helvetica;" parent="1" vertex="1">
          <mxGeometry x="601.9999999999999" y="661" width="391" height="41" as="geometry" />
        </mxCell>
        <mxCell id="d6p9PFXJ9PnHoYDoL1wJ-19" value="" style="rounded=1;whiteSpace=wrap;html=1;strokeColor=none;fillColor=#FFFFFF;arcSize=15;absoluteArcSize=1;imageWidth=64;imageHeight=64;strokeWidth=1.5;fontColor=#00185A;align=center;verticalAlign=middle;spacingTop=0;spacing=0;fontFamily=Arial;fontSize=12;fontStyle=0;" parent="1" vertex="1">
          <mxGeometry x="823" y="708" width="200.96" height="62" as="geometry" />
        </mxCell>
        <mxCell id="h2hpR55Zg2pIGTTugXfR-33" style="edgeStyle=orthogonalEdgeStyle;rounded=0;orthogonalLoop=1;jettySize=auto;html=1;entryX=0.494;entryY=1.018;entryDx=0;entryDy=0;entryPerimeter=0;exitX=0.5;exitY=0;exitDx=0;exitDy=0;" parent="1" source="d6p9PFXJ9PnHoYDoL1wJ-23" target="d6p9PFXJ9PnHoYDoL1wJ-24" edge="1">
          <mxGeometry relative="1" as="geometry">
            <mxPoint x="847" y="545" as="targetPoint" />
            <Array as="points">
              <mxPoint x="847" y="545" />
              <mxPoint x="847" y="545" />
            </Array>
          </mxGeometry>
        </mxCell>
        <mxCell id="d6p9PFXJ9PnHoYDoL1wJ-23" value="&lt;div&gt;View&lt;/div&gt;" style="rounded=1;whiteSpace=wrap;html=1;strokeColor=none;fillColor=#FFFFFF;arcSize=15;absoluteArcSize=1;imageWidth=64;imageHeight=64;strokeWidth=1.5;fontColor=#00185A;align=center;verticalAlign=middle;spacingTop=0;spacing=0;fontFamily=Arial;fontSize=12;fontStyle=0;" parent="1" vertex="1">
          <mxGeometry x="686" y="558" width="322" height="29" as="geometry" />
        </mxCell>
        <mxCell id="d6p9PFXJ9PnHoYDoL1wJ-24" value="&lt;div&gt;&lt;font&gt;Analytic Model&lt;/font&gt;&lt;/div&gt;" style="rounded=1;whiteSpace=wrap;html=1;strokeColor=none;fillColor=#FFFFFF;arcSize=15;absoluteArcSize=1;imageWidth=64;imageHeight=64;strokeWidth=1.5;fontColor=#00185A;align=center;verticalAlign=middle;spacingTop=0;spacing=0;fontFamily=Arial;fontSize=12;fontStyle=0;" parent="1" vertex="1">
          <mxGeometry x="687" y="509" width="323" height="30" as="geometry" />
        </mxCell>
        <mxCell id="d6p9PFXJ9PnHoYDoL1wJ-25" value="&lt;div&gt;&lt;span style=&quot;background-color: transparent; color: light-dark(rgb(0, 24, 90), rgb(197, 217, 255));&quot;&gt;SAP Databricks&amp;nbsp;&lt;/span&gt;&lt;/div&gt;" style="rounded=1;whiteSpace=wrap;html=1;strokeColor=#1B91FF;fillColor=default;arcSize=30;absoluteArcSize=1;imageWidth=64;imageHeight=64;strokeWidth=1;verticalAlign=top;spacingTop=11;fontStyle=1;fontSize=15;fontColor=light-dark(#00185A,#C5D9FF);align=center;fontFamily=Helvetica;gradientColor=none;gradientDirection=south;" parent="1" vertex="1">
          <mxGeometry x="1177" y="420" width="230" height="471.5" as="geometry" />
        </mxCell>
        <mxCell id="d6p9PFXJ9PnHoYDoL1wJ-27" value="&lt;span&gt;Custom AI/ML&lt;/span&gt;" style="rounded=1;whiteSpace=wrap;html=1;strokeColor=none;fillColor=#D1EFFF;arcSize=12;absoluteArcSize=1;imageWidth=64;imageHeight=64;strokeWidth=1.5;dashed=1;dashPattern=1 2;fontSize=13;fontStyle=1;fontColor=light-dark(#00185A,#CCDDFF);align=center;verticalAlign=middle;fontFamily=Helvetica;gradientColor=none;gradientDirection=south;" parent="1" vertex="1">
          <mxGeometry x="1194" y="599" width="196" height="86" as="geometry" />
        </mxCell>
        <mxCell id="d6p9PFXJ9PnHoYDoL1wJ-28" value="&lt;span&gt;Pro-Code Data Engineering&lt;/span&gt;" style="rounded=1;whiteSpace=wrap;html=1;strokeColor=none;fillColor=#D1EFFF;arcSize=12;absoluteArcSize=1;imageWidth=64;imageHeight=64;strokeWidth=1.5;dashed=1;dashPattern=1 2;fontSize=13;fontStyle=1;fontColor=light-dark(#00185A,#CCDDFF);align=center;verticalAlign=middle;fontFamily=Helvetica;gradientColor=none;gradientDirection=south;" parent="1" vertex="1">
          <mxGeometry x="1194.66" y="696.25" width="195.34" height="86" as="geometry" />
        </mxCell>
        <mxCell id="HuKUn9V87gG_sD96qXaC-146" value="&lt;p style=&quot;language:en-US;margin-top:0pt;margin-bottom:0pt;margin-left:0in;&lt;br/&gt;text-align:left;direction:ltr;unicode-bidi:embed;vertical-align:baseline;&lt;br/&gt;mso-line-break-override:none;word-break:normal;punctuation-wrap:hanging&quot;&gt;&lt;b style=&quot;font-family: arial; text-align: center; text-wrap-mode: nowrap;&quot;&gt;Business Data Cloud&lt;/b&gt;&lt;/p&gt;" style="text;whiteSpace=wrap;html=1;fontColor=light-dark(#00185A,#C5D9FF);fontSize=21;verticalAlign=middle;" parent="1" vertex="1">
          <mxGeometry x="272" y="335.5" width="109" height="19" as="geometry" />
        </mxCell>
        <mxCell id="d6p9PFXJ9PnHoYDoL1wJ-21" value="&lt;font face=&quot;arial&quot;&gt;&lt;b&gt;SAP Datasphere&lt;/b&gt;&lt;/font&gt;&lt;b style=&quot;font-family: arial; background-color: transparent;&quot;&gt;&amp;nbsp;Layer&lt;/b&gt;" style="text;html=1;align=left;verticalAlign=middle;resizable=0;points=[[0,0.5,0,0,0],[0.5,0,0,0,0],[0.5,1,0,0,0],[1,0.5,0,0,0]];autosize=1;strokeColor=none;fillColor=none;fontSize=12;fontColor=light-dark(#00185A,#C5D9FF);fontFamily=Helvetica;" parent="1" vertex="1">
          <mxGeometry x="601.9999999999998" y="470" width="147" height="26" as="geometry" />
        </mxCell>
        <mxCell id="HuKUn9V87gG_sD96qXaC-149" value="" style="shape=image;verticalLabelPosition=bottom;labelBackgroundColor=default;verticalAlign=top;aspect=fixed;imageAspect=0;editableCssRules=.*;image=data:image/svg+xml,PHN2ZyB4bWxucz0iaHR0cDovL3d3dy53My5vcmcvMjAwMC9zdmciIGZpbGw9Im5vbmUiIHZpZXdCb3g9Ii0wLjAwMDQ4Mzc3NjAwMDk3NjU3MTI1IC0wLjAwMjE5MzcxNDA1MDI5Mjk3NzUgMTUuOTk5NjI3NjM5NTg3NDAyIDE1Ljk5OTYyNzYzOTU4NzQwMiIgaGVpZ2h0PSIxNS45OTk2Mjc2Mzk1ODc0MDIiIHdpZHRoPSIxNS45OTk2Mjc2Mzk1ODc0MDIiPiYjeGE7PGNpcmNsZSBzdHJva2Utd2lkdGg9IjAuMjg1NzA4IiBzdHJva2U9IiNENURBREQiIGZpbGw9InVybCgjcGFpbnQwX2xpbmVhcl82NDcxXzI1NjY1KSIgcj0iNy44NTY5NiIgY3k9IjcuOTk3NjIiIGN4PSI3Ljk5OTMzIi8+JiN4YTs8ZyBjbGlwLXBhdGg9InVybCgjY2xpcDBfNjQ3MV8yNTY2NSkiPiYjeGE7PHBhdGggZmlsbD0idXJsKCNwYWludDFfbGluZWFyXzY0NzFfMjU2NjUpIiBkPSJNMTAuNDQwNyA3LjI3ODg2QzEwLjY0MzIgNi42ODM4NCAxMC45MDgyIDYuNDE4ODIgMTEuNTAzMiA2LjIxNjMxQzExLjY3NTcgNi4xNTYzMSAxMS42NzU3IDUuOTA4OCAxMS41MDMyIDUuODUxM0MxMC45MDgyIDUuNjQ4NzkgMTAuNjQzMiA1LjM4Mzc3IDEwLjQ0MDcgNC43ODg3NEMxMC4zODMyIDQuNjE2MjQgMTAuMTM1NyA0LjYxNjI0IDEwLjA3ODIgNC43ODg3NEM5Ljg3NTY1IDUuMzgzNzcgOS42MTA2NCA1LjY0ODc5IDkuMDE1NjEgNS44NTEzQzguODQzMSA1LjkxMTMgOC44NDMxIDYuMTU4ODEgOS4wMTU2MSA2LjIxNjMxQzkuNjEwNjQgNi40MTg4MiA5Ljg3NTY1IDYuNjgzODQgMTAuMDc4MiA3LjI3ODg2QzEwLjEzNTcgNy40NTEzNyAxMC4zODMyIDcuNDUxMzcgMTAuNDQwNyA3LjI3ODg2WiIvPiYjeGE7PHBhdGggZmlsbD0idXJsKCNwYWludDJfbGluZWFyXzY0NzFfMjU2NjUpIiBkPSJNMTEuNzQ2NyA1LjE1MTc4QzExLjg3MzggNC43NzYxNSAxMi4wNDE0IDQuNjA4NTYgMTIuNDE3IDQuNDgxNDJDMTIuNTI2OCA0LjQ0Mzg2IDEyLjUyNjggNC4yODc4MyAxMi40MTcgNC4yNTAyNkMxMi4wNDE0IDQuMTIzMTMgMTEuODczOCAzLjk1NTU0IDExLjc0NjcgMy41Nzk5MUMxMS43MDkxIDMuNDcwMTEgMTEuNTU2IDMuNDcwMTEgMTEuNTE4NCAzLjU3OTkxQzExLjM5MTMgMy45NTU1NCAxMS4yMjM3IDQuMTIzMTMgMTAuODQ4MSA0LjI1MDI2QzEwLjczODMgNC4yODc4MyAxMC43MzgzIDQuNDQzODYgMTAuODQ4MSA0LjQ4MTQyQzExLjIyMzcgNC42MDg1NiAxMS4zOTEzIDQuNzc2MTUgMTEuNTE4NCA1LjE1MTc4QzExLjU1NiA1LjI2MTU4IDExLjcwOTEgNS4yNjE1OCAxMS43NDY3IDUuMTUxNzhaIi8+JiN4YTs8cGF0aCBmaWxsPSJ1cmwoI3BhaW50M19saW5lYXJfNjQ3MV8yNTY2NSkiIGQ9Ik03Ljk0Mzc3IDQuMzY1OTdDOC40NDE2OCA0LjM2NTk3IDguODgxOTkgNC40OTcxNiA5LjI1MzY0IDQuNzM0QzkuMjA4MzggNC44Mjg3NiA5LjE2OTMyIDQuODc4MzkgOS4xMzc0IDQuOTEwMzFDOS4wODgxMyA0Ljk1OTU4IDguOTk2NjMgNS4wMjU4OCA4Ljc2MjA1IDUuMTA1NzFMOC43NTcwNyA1LjEwNzQ0QzcuODk1NjUgNS40MDcwNyA3Ljg2MTIyIDYuNjU4NTYgOC43NjM2IDYuOTYyMjlDOC45OTcwMyA3LjA0MTg5IDkuMDg4MjQgNy4xMDgwMiA5LjEzNzQgNy4xNTcxOEM5LjE4NjU3IDcuMjA2MzQgOS4yNTI3MSA3LjI5NzU2IDkuMzMyMzEgNy41MzEwMkM5LjYzMDcyIDguNDE3MjQgMTAuODg4NSA4LjQxNzI0IDExLjE4NjkgNy41MzEwMkMxMS4yNjY1IDcuMjk3NTYgMTEuMzMyNiA3LjIwNjM0IDExLjM4MTggNy4xNTcxOEMxMS40MzEgNy4xMDc5MSAxMS41MjI2IDcuMDQxNTkgMTEuNzU3MSA2Ljk2MTc2TDExLjc2MjEgNi45NjAwNEMxMS44Mzc0IDYuOTMzODUgMTEuOTA2NCA2LjkwMDM3IDExLjk2OSA2Ljg2MDg5QzEyLjI5NDEgNy4yNDczNiAxMi40OTk1IDcuNzY2NjEgMTIuNDk5NSA4LjM2NjE1QzEyLjQ5OTUgOS43OTY3OCAxMS4zNzQ1IDEwLjY1NzkgMTAuMTU3MiAxMC41ODI4SDkuNTYxMjNWOS4yMDcyQzkuNTUxMzQgOC45MDExOCA5LjM4NjU1IDguNjE2MzIgOS4xMTIyOCA4LjQ1ODdMOS4xMTgwNiA4LjQ1NTI2TDcuMzYzMjkgNy40NDAzOEw3LjM1OTIxIDcuNDM4MDlDNy4wODg1NSA3LjI4NjUzIDYuNzQ2NzEgNy4yNzk1OSA2LjQ2NTAyIDcuNDQzNTJMNi40NjQyMiA3LjQ0Mzk5TDUuNjEzMyA3LjkzNzk2TDUuNjA5NjEgNy45MzU3N0w0LjcyMzYgOC40NTE4NUM0LjQ0MjY3IDguNjEyMyA0LjI4MDkxIDguOTA1MzcgNC4yNzI4MiA5LjIwNzM4TDQuMjcyNjUgMTAuMzIzM0MzLjc2MDg2IDEwLjAxOTQgMy40OTk1MSA5LjQ3MTA5IDMuNDk5NTEgOC43OTkxM0MzLjQ5OTUxIDcuNzA3ODIgNC4yOTY1OSA2Ljg0NjU1IDUuNTI2OTkgNy4wNjA1M0M1LjQyOTc2IDUuNzY4NzkgNi40NjQ5MSA0LjM2NTk3IDcuOTQzNzcgNC4zNjU5N1oiLz4mI3hhOzxwYXRoIGZpbGw9InVybCgjcGFpbnQ0X2xpbmVhcl82NDcxXzI1NjY1KSIgZD0iTTYuOTE2NjMgOS41MDEzMUw3LjU5MTg0IDkuOTAzNjJWMTAuNjA5OEw2LjkxNjYzIDExLjAwMDhMNi4yNDE0MiAxMC42MDk4VjkuOTAzNjJMNi45MTY2MyA5LjUwMTMxWk02LjkxNjYzIDguOTc4MDJMNy43ODMxNSA4LjQ2MzE3TDcuMDI5MTYgOC4wMjcxQzYuOTU4ODMgNy45ODc3MSA2Ljg3MTYxIDcuOTg3NzEgNi44MDQwOSA4LjAyNzFMNi4wNTI5MiA4LjQ2MzE3TDYuOTE5NDQgOC45NzgwMkg2LjkxNjYzWk03LjM1ODMzIDkuMjM5NjZMNy45MzIyNiA5LjU4Mjg5QzcuOTk5NzggOS42MjIyOCA4LjA0MTk4IDkuNjk4MjQgOC4wNDE5OCA5Ljc3NzAyVjEwLjM1MDlMOC44ODU5OSA5Ljg2MTQyVjkuMjM2ODVDOC44ODU5OSA5LjE1NTI2IDguODQzNzkgOS4wODIxMSA4Ljc3MzQ1IDkuMDQyNzNMOC4yMjc2NiA4LjcyNDgyTDcuMzU4MzMgOS4yNDI0OFY5LjIzOTY2Wk03LjU5MTg0IDExLjEzMDNMNy4wMjkxNiAxMS40NTY2QzcuMDI5MTYgMTEuNDU2NiA3LjAyOTE2IDExLjQ1NjYgNy4wMjYzNSAxMS40NTY2QzYuOTkyNTkgMTEuNDc2MyA2Ljk1NjAyIDExLjQ4NDcgNi45MTk0NCAxMS40ODQ3QzYuODgyODcgMTEuNDg0NyA2Ljg0NjI5IDExLjQ3NjMgNi44MTI1MyAxMS40NTY2QzYuODEyNTMgMTEuNDU2NiA2LjgxMjUzIDExLjQ1NjYgNi44MDk3MiAxMS40NTY2TDYuMjQ3MDQgMTEuMTMwM1YxMi4xNDAzTDYuODA5NzIgMTIuNDY2NkM2Ljg0MzQ4IDEyLjQ4NjMgNi44ODI4NyAxMi40OTc2IDYuOTIyMjUgMTIuNDk3NkM2Ljk2MTY0IDEyLjQ5NzYgNy4wMDEwMyAxMi40ODYzIDcuMDM0NzkgMTIuNDY2Nkw3LjU5NzQ2IDEyLjE0MDNWMTEuMTMwM0g3LjU5MTg0Wk04LjA0MTk4IDEwLjg2ODZWMTEuODc4Nkw4Ljc3MzQ1IDExLjQ1MzhDOC44NDM3OSAxMS40MTQ0IDguODg1OTkgMTEuMzM4NCA4Ljg4NTk5IDExLjI1OTdWMTAuMzc5MUw4LjA0MTk4IDEwLjg2ODZaTTUuNzkxMjggMTAuMzQ4MVY5Ljc3NDJDNS43OTEyOCA5LjY5NTQzIDUuODMzNDggOS42MjIyOCA1LjkwMSA5LjU4MDA4TDYuNDc0OTMgOS4yMzY4NUw1LjYwNTYgOC43MTkxOUw1LjA1OTggOS4wMzcxQzQuOTg5NDcgOS4wNzY0OSA0Ljk0NzI3IDkuMTUyNDUgNC45NDcyNyA5LjIzMTIyVjkuODU1NzlMNS43OTEyOCAxMC4zNDUzVjEwLjM0ODFaTTUuNzkxMjggMTAuODY4Nkw0Ljk0NzI3IDEwLjM3OTFWMTEuMjU5N0M0Ljk0NzI3IDExLjM0MTMgNC45ODk0NyAxMS40MTQ0IDUuMDU5OCAxMS40NTM4TDUuNzkxMjggMTEuODc4NlYxMC44Njg2WiIvPiYjeGE7PC9nPiYjeGE7PGRlZnM+JiN4YTs8bGluZWFyR3JhZGllbnQgZ3JhZGllbnRVbml0cz0idXNlclNwYWNlT25Vc2UiIHkyPSIxNC43NDU2IiB4Mj0iMTMuNjg3NCIgeTE9IjIuMjY4NyIgeDE9IjEuNDUwNDMiIGlkPSJwYWludDBfbGluZWFyXzY0NzFfMjU2NjUiPiYjeGE7PHN0b3Agc3RvcC1jb2xvcj0id2hpdGUiLz4mI3hhOzxzdG9wIHN0b3AtY29sb3I9IiNFQUVDRUUiIG9mZnNldD0iMSIvPiYjeGE7PC9saW5lYXJHcmFkaWVudD4mI3hhOzxsaW5lYXJHcmFkaWVudCBncmFkaWVudFVuaXRzPSJ1c2VyU3BhY2VPblVzZSIgeTI9IjYuNjA0NDEiIHgyPSIxMi4xNTY1IiB5MT0iNC4wODQyOSIgeDE9IjkuNDI2OTciIGlkPSJwYWludDFfbGluZWFyXzY0NzFfMjU2NjUiPiYjeGE7PHN0b3Agc3RvcC1jb2xvcj0iIzAwQkJGRiIvPiYjeGE7PHN0b3Agc3RvcC1jb2xvcj0iIzAwOEJGRiIgb2Zmc2V0PSIxIi8+JiN4YTs8L2xpbmVhckdyYWRpZW50PiYjeGE7PGxpbmVhckdyYWRpZW50IGdyYWRpZW50VW5pdHM9InVzZXJTcGFjZU9uVXNlIiB5Mj0iNi42MDQ0MSIgeDI9IjEyLjE1NjUiIHkxPSI0LjA4NDI5IiB4MT0iOS40MjY5NyIgaWQ9InBhaW50Ml9saW5lYXJfNjQ3MV8yNTY2NSI+JiN4YTs8c3RvcCBzdG9wLWNvbG9yPSIjMDBCQkZGIi8+JiN4YTs8c3RvcCBzdG9wLWNvbG9yPSIjMDA4QkZGIiBvZmZzZXQ9IjEiLz4mI3hhOzwvbGluZWFyR3JhZGllbnQ+JiN4YTs8bGluZWFyR3JhZGllbnQgZ3JhZGllbnRVbml0cz0idXNlclNwYWNlT25Vc2UiIHkyPSIxMS4xOTMiIHgyPSI4LjkyMzQiIHkxPSI1LjI5NjM0IiB4MT0iNC44NDg2NSIgaWQ9InBhaW50M19saW5lYXJfNjQ3MV8yNTY2NSI+JiN4YTs8c3RvcCBzdG9wLWNvbG9yPSIjMDE5NUZGIi8+JiN4YTs8c3RvcCBzdG9wLWNvbG9yPSIjMTE0N0U5IiBvZmZzZXQ9IjAuOTkxMDI4Ii8+JiN4YTs8L2xpbmVhckdyYWRpZW50PiYjeGE7PGxpbmVhckdyYWRpZW50IGdyYWRpZW50VW5pdHM9InVzZXJTcGFjZU9uVXNlIiB5Mj0iMTEuNDA1MiIgeDI9IjguNjUyOTEiIHkxPSI4LjY1OTYiIHgxPSI1LjUyOTU4IiBpZD0icGFpbnQ0X2xpbmVhcl82NDcxXzI1NjY1Ij4mI3hhOzxzdG9wIHN0b3AtY29sb3I9IiMxMzQ4RkYiLz4mI3hhOzxzdG9wIHN0b3AtY29sb3I9IiMwNjIzOEQiIG9mZnNldD0iMSIvPiYjeGE7PC9saW5lYXJHcmFkaWVudD4mI3hhOzxjbGlwUGF0aCBpZD0iY2xpcDBfNjQ3MV8yNTY2NSI+JiN4YTs8cmVjdCB0cmFuc2Zvcm09InRyYW5zbGF0ZSgzLjQ5OTUxIDMuNDk3NTYpIiBmaWxsPSJ3aGl0ZSIgaGVpZ2h0PSI5IiB3aWR0aD0iOSIvPiYjeGE7PC9jbGlwUGF0aD4mI3hhOzwvZGVmcz4mI3hhOzwvc3ZnPg==;" parent="1" vertex="1">
          <mxGeometry x="231.33999999999997" y="327" width="36" height="36" as="geometry" />
        </mxCell>
        <mxCell id="HuKUn9V87gG_sD96qXaC-151" value="&lt;font&gt;&lt;span&gt;&lt;b&gt;SAP Datasphere&lt;/b&gt;&lt;/span&gt;&lt;/font&gt;" style="text;whiteSpace=wrap;html=1;align=left;spacing=0;container=0;fontColor=light-dark(#00185A,#C5D9FF);fontSize=15;verticalAlign=middle;" parent="1" vertex="1">
          <mxGeometry x="625" y="427.94" width="125" height="24" as="geometry" />
        </mxCell>
        <mxCell id="HuKUn9V87gG_sD96qXaC-152" value="" style="shape=image;verticalLabelPosition=bottom;verticalAlign=top;imageAspect=0;aspect=fixed;image=data:image/svg+xml,PHN2ZyB4bWxucz0iaHR0cDovL3d3dy53My5vcmcvMjAwMC9zdmciIGZpbGw9Im5vbmUiIHZpZXdCb3g9IjAgMCA0OSA0OSIgaGVpZ2h0PSI0OSIgd2lkdGg9IjQ5Ij4mI3hhOzxnIGNsaXAtcGF0aD0idXJsKCNjbGlwMF8yNjIyXzM5MTApIj4mI3hhOzxjaXJjbGUgc3Ryb2tlLXdpZHRoPSIwLjg1NzE0MyIgc3Ryb2tlPSIjRDVEQUREIiBmaWxsPSJ1cmwoI3BhaW50MF9saW5lYXJfMjYyMl8zOTEwKSIgcj0iMjMuNTcxNCIgY3k9IjI0LjAzNDkiIGN4PSIyNC41Ii8+JiN4YTs8cGF0aCBmaWxsPSJ1cmwoI3BhaW50MV9yYWRpYWxfMjYyMl8zOTEwKSIgZD0iTTI0LjE0NzEgMjguNDU4MUgyNC4xMTk3QzIyLjY4ODMgMjguNDUyNCAyMS4zMTczIDI3LjkxNzMgMjAuMzA1MSAyNi45NjkzQzE5LjI5MjkgMjYuMDIxNCAxOC43MjE2IDI0LjczNzIgMTguNzE1NSAyMy4zOTY2VjIzLjM0MzlDMTguNzA5MyAyMi4wMTE3IDE4LjgxMjkgMjAuNjgwOSAxOS4wMjU0IDE5LjM2MzZDMTkuMTk4OSAxOC4yNjQxIDE5LjQ3MTggMTcuMTgwNCAxOS44NDEgMTYuMTI0MkMyMC4xNzgzIDE1LjE5MjkgMjAuNTYyNiAxNC40NjM2IDIwLjk5MzkgMTMuOTM2M0MyMS40MjUzIDEzLjQwOSAyMS44NjYzIDEzLjE0NTMgMjIuMzE2OSAxMy4xNDUzQzIzLjIzNjMgMTMuMTQ1MyAyMy45MjU3IDEzLjQ5NjcgMjQuMzg0OSAxNC4xOTk1QzI0LjgyNzYgMTQuODczMiAyNS4wNjU5IDE1LjY0NjUgMjUuMDc1MSAxNi40MzY1QzI1LjA2NzkgMTMuOTE4OCAyNC43MzQ2IDEyLjMwNzUgMjQuMDc1MSAxMS42MDI2QzIzLjQwODMgMTAuODg5OSAyMi44MjIyIDEwLjUzNCAyMi4zMTY5IDEwLjUzNDlDMjEuNjk3MiAxMC41MzQ5IDIxLjEwNTkgMTAuNzk4NiAyMC41NDI5IDExLjMyNTlDMTkuOTk4MSAxMS44NzEyIDE5LjUxNzggMTIuNjgxIDE5LjEwMTggMTMuNzU1NEMxOC42MzExIDE1LjA1ODMgMTguMjkzMyAxNi40MDAxIDE4LjA5MyAxNy43NjI4QzE3LjgzMDQgMTkuNjMyOSAxNy42OTkgMjEuNTE3MSAxNy42OTk1IDIzLjQwMzNDMTcuNzAwMSAyNC4wOTI2IDE3LjkwNDYgMjQuNzY4MSAxOC4yOTA0IDI1LjM1NTFDMTguNjY4OCAyNS45NzQzIDE5LjE3MDIgMjYuNTE5OSAxOS43Njc2IDI2Ljk2MjZDMjAuMzg5NyAyNy40MjYxIDIxLjA4ODggMjcuNzkwOCAyMS44MzcgMjguMDQyNEMyMi41NTE2IDI4LjMxNjYgMjMuMzE1OCAyOC40NTk2IDI0LjA4OCAyOC40NjM1TDI0LjE0NzEgMjguNDU4MVoiLz4mI3hhOzxwYXRoIGZpbGw9InVybCgjcGFpbnQyX3JhZGlhbF8yNjIyXzM5MTApIiBkPSJNMjIuNjU1NiAzNC41MjI1QzIxLjk5ODQgMzQuNzMzIDIxLjQ0NSAzNC43MTUxIDIwLjk5NTQgMzQuNDY4NUMyMC42NzggMzQuMjE4NSAyMC40MjI4IDMzLjkwNjcgMjAuMjQ3NCAzMy41NTQ3QzIwLjA1ODQgMzMuMTk4MiAxOS45NTk3IDMyLjgwNTYgMTkuOTU5MiAzMi40MDc0QzE5Ljk1ODYgMzIuMzQxNSAxOS45NjM1IDMyLjI3NTYgMTkuOTczNiAzMi4yMTA0QzE5Ljk4MSAzMi4xNTg2IDE5Ljk4NTYgMzIuMTA2NSAxOS45ODczIDMyLjA1NDNDMTkuNjgzMyAzMy4zMzUyIDE5LjU4NzUgMzQuNDQ5OSAxOS42OTk4IDM1LjM5ODVDMTkuODEyMiAzNi4zNDc4IDIwLjE4NzkgMzYuOTgwNCAyMC44MjY4IDM3LjI5NjJDMjEuMzcwNiAzNy41OTU4IDIyLjAzNjQgMzcuNjEzNCAyMi44MjQyIDM3LjM0ODhDMjMuNjMxMiAzNy4xMDIzIDI0LjQ4OTYgMzYuNjI4MSAyNS4zOTk1IDM1LjkyNjJDMjYuNDIzNSAzNS4xMTI2IDI3LjM2MTcgMzQuMjA4NiAyOC4yMDEgMzMuMjI2N0MyOS4xODQzIDMyLjA1OCAzMC4wNzc2IDMwLjgyNTMgMzAuODc0MyAyOS41Mzc5TDMxLjE4NDEgMjkuMDg5OEMzMC44NjU2IDI4Ljk1NDggMzAuNTcwMiAyOC44MTU4IDMwLjI5NzggMjguNjg0OUMzMC4wNDM3IDI4LjU2MjcgMjkuNzkzNCAyOC40Mjc3IDI5LjU0OCAyOC4yODE5QzI4LjgyMTYgMjkuMzEyMyAyOC4wMjM1IDMwLjI5NjggMjcuMTU5MSAzMS4yMjkxQzI2LjQzNjMgMzIuMDEzNiAyNS42NDA2IDMyLjczNjMgMjQuNzgxMiAzMy4zODg3QzI0LjAyMTMgMzMuOTUwMiAyMy4zMTI3IDM0LjMyODEgMjIuNjU1NiAzNC41MjI1WiIvPiYjeGE7PHBhdGggZmlsbD0idXJsKCNwYWludDNfcmFkaWFsXzI2MjJfMzkxMCkiIGQ9Ik0zMi42OTg3IDI2LjA3MzFDMzIuODY3MyAyNS42OTUyIDMzLjAyNTkgMjUuMzEzMiAzMy4xNzcyIDI0LjkyNThIMzMuMTgyOUMzMy4wMTQzIDI0LjY5NzcgMzIuODQgMjQuNDg1OCAzMi42NjI3IDI0LjI4MzRDMzIuNDg1NCAyNC4wODA5IDMyLjMwMjQgMjMuODgzOCAzMi4xMTUxIDIzLjY4OTVDMzEuODMyNiAyNC4zMDUgMzEuNTU0NSAyNC44NjY0IDMxLjI4MzYgMjUuMzc2N0MzMS4wMzc4IDI1LjgzOTQgMzAuNzcwOCAyNi4yODY2IDMwLjQ4NTYgMjYuNzIwMkMzMC43MzIgMjYuODYyNCAzMC45OTU1IDI2Ljk3NjggMzEuMjcwNiAyNy4wNjExQzMxLjU1MDIgMjcuMTQ5MSAzMS44NDA5IDI3LjIwMjIgMzIuMTM1MyAyNy4yMTlIMzIuMTY0MUMzMi4zNTE0IDI2LjgzMyAzMi41MzAxIDI2LjQ1MSAzMi42OTg3IDI2LjA3MzFaIi8+JiN4YTs8cGF0aCBmaWxsPSJ1cmwoI3BhaW50NF9yYWRpYWxfMjYyMl8zOTEwKSIgZD0iTTMzLjcxMTggMTguMTUxNVYxOC4xNzcxQzMzLjY3OTYgMTguNjQ5OCAzMy42MjA5IDE5LjEyMDcgMzMuNTM2IDE5LjU4NzZDMzMuNDU3MyAyMC4wMDExIDMzLjM1OTQgMjAuNDEwMSAzMy4yNDIzIDIwLjgxNDRDMzMuMzkyMSAyMC45MjEyIDMzLjUzNTggMjEuMDM1MyAzMy42NzI5IDIxLjE1NkMzMy44MDU4IDIxLjI3NDYgMzMuOTUwNiAyMS4zODA4IDM0LjEwNTMgMjEuNDczMkMzNC4xNDQ3IDIxLjMwMzYgMzQuMTczMSAyMS4xMzE4IDM0LjE5MDMgMjAuOTU5QzM0LjIwOSAyMC43NyAzNC4yMTc3IDIwLjU3NTYgMzQuMjE3NyAyMC4zNjUxQzM0LjIxNzggMTkuOTgwMSAzNC4xNzU4IDE5LjU5NjEgMzQuMDkyMyAxOS4yMTkxQzM0LjAxMDcgMTguODUwNSAzMy44ODMgMTguNDkyMiAzMy43MTE4IDE4LjE1MTVaIi8+JiN4YTs8cGF0aCBmaWxsPSJ1cmwoI3BhaW50NV9yYWRpYWxfMjYyMl8zOTEwKSIgZD0iTTE2LjkxNDEgMjUuMjQzTDE2LjgyOTEgMjUuMjk1N0MxNi41NzMxIDI1LjQxNDQgMTYuMzI0NCAyNS41NDY1IDE2LjA4NCAyNS42OTExQzE1Ljg0ODcgMjUuODMxNSAxNS42MjgyIDI1Ljk3MTkgMTUuNDIyNiAyNi4xMTIzTDE1LjA1NjUgMjUuNTMzMkMxNC4yNzIyIDI0LjI0NDYgMTMuNTg1NCAyMi45MDYgMTMuMDAxNSAyMS41MjcyQzEyLjUyMDIgMjAuMzU3NyAxMi4xNTc0IDE5LjE0ODQgMTEuOTE3OCAxNy45MTUzQzExLjcyMDggMTYuODI2NSAxMS42OTczIDE1Ljg5NTIgMTEuODQ3MiAxNS4xMjEzQzExLjk5NyAxNC4zNDc1IDEyLjM0NDMgMTMuODExMiAxMi44ODkxIDEzLjUxMjRDMTMuNTI2MSAxMy4xNzg2IDE0LjMwOTUgMTMuMTk2MSAxNS4yMzk1IDEzLjU2NTFDMTYuMTY5NiAxMy45MzQgMTcuMTM4OSAxNC41OTQgMTguMTQ3NyAxNS41NDUxQzE3LjY3ODEgMTUuMjY0MiAxNy4xNTg5IDE1LjA2MzUgMTYuNjE0NCAxNC45NTI2QzE2LjIwNjkgMTQuODY0OSAxNS43NzkxIDE0LjkyNjIgMTUuNDE4MiAxNS4xMjRDMTQuOTQ4NCAxNS4zNjk3IDE0LjYzODYgMTUuODA4OCAxNC40ODg3IDE2LjQ0MTRDMTQuMzU3MSAxNy4yMTQ4IDE0LjM2MiAxOC4wMDMyIDE0LjUwMzEgMTguNzc1MUMxNC42NzY1IDE5LjgwMzYgMTQuOTU0NCAyMC44MTQyIDE1LjMzMzIgMjEuNzkzMUMxNS43ODE1IDIyLjk3NzkgMTYuMzE3NSAyNC4xMzIxIDE2LjkzNzIgMjUuMjQ3MUwxNi45MTQxIDI1LjI0M1oiLz4mI3hhOzxwYXRoIGZpbGw9InVybCgjcGFpbnQ2X3JhZGlhbF8yNjIyXzM5MTApIiBkPSJNMTYuNTc1NSAyNy43MTk4QzE2Ljc0NTQgMjcuNTA4NCAxNi45Mzg3IDI3LjMxNDMgMTcuMTUxOSAyNy4xNDA4QzE3LjM3NDggMjYuOTYwNSAxNy42MTYyIDI2LjgwMTQgMTcuODcyNSAyNi42NjU3QzE4LjIwOTcgMjcuMTkzOSAxOC41NDYgMjcuNjk5MSAxOC44ODEzIDI4LjE4MTRDMTkuMjE4NSAyOC42NjYgMTkuNTY1OCAyOS4xMjYyIDE5LjkyMzIgMjkuNTY2MkwxOS40NDQ3IDI5LjY0NDVIMTkuNTAwOUMxOS4zMTIyIDI5LjY3OTYgMTkuMTE2MiAyOS43MTA3IDE4LjkwODYgMjkuNzM3N0MxOC43MDExIDI5Ljc2NDcgMTguNDg3OCAyOS43ODYzIDE4LjI2MTYgMjkuODAyNEMxNy45ODAxIDI5LjUwNDYgMTcuNjk4NiAyOS4xNzk4IDE3LjQxNzEgMjguODI3OUMxNy4xMzU2IDI4LjQ3NjEgMTYuODU0MSAyOC4xMTYyIDE2LjU3MjYgMjcuNzQ4MUwxNi41NzU1IDI3LjcxOThaIi8+JiN4YTs8cGF0aCBmaWxsPSJ1cmwoI3BhaW50N19yYWRpYWxfMjYyMl8zOTEwKSIgZD0iTTI0LjExOTcgMzMuNTE5NkMyMy41Mjk1IDMzLjQ3MiAyMi45NTI4IDMzLjMyNzEgMjIuNDE2MyAzMy4wOTE4QzIxLjg5ODcgMzIuODY0OSAyMS40MTk4IDMyLjU2NzUgMjAuOTk1NCAzMi4yMDlMMjIuMDM1OSAzMS44MzkyVjMxLjg2NjJDMjIuMzU1OCAzMi4xNjQ5IDIyLjY4OTIgMzIuNDU0NyAyMy4wMzYgMzIuNzM1NEMyMy4zODgyIDMzLjAyMDggMjMuNzU5MyAzMy4yODQ5IDI0LjE0NzEgMzMuNTI2NEwyNC4xMTk3IDMzLjUxOTZaIi8+JiN4YTs8cGF0aCBmaWxsPSJ1cmwoI3BhaW50OF9yYWRpYWxfMjYyMl8zOTEwKSIgZD0iTTI2Ljg3OCAyNy43MTk4SDI2LjkwNTRDMjcuNzI4MSAyNy4yODQzIDI4LjQxMjggMjYuNjUyMyAyOC44ODk4IDI1Ljg4ODJDMjkuMzg0NiAyNS4xMTM1IDI5LjY0MjkgMjQuMjI2NCAyOS42MzYzIDIzLjMyMzdDMjkuNjM3NyAyMi44NjAzIDI5LjU3MTMgMjIuMzk4OSAyOS40Mzg5IDIxLjk1MjRMMjkuNDIwNSAyMS44OTExQzI5LjUyNDMgMjIuMTg1NSAyOS42MDU2IDIyLjQ4NyAyOS42NjM3IDIyLjc5MzNDMjkuNzk0OSAyMy41MjE5IDI5Ljc5NDkgMjQuMjY2IDI5LjY2MzcgMjQuOTk0N0MyOS41Mzk5IDI1LjcwMzYgMjkuMjgyNyAyNi4zODY0IDI4LjkwNDMgMjcuMDExMkMyOC41Mzg0IDI3LjYxNyAyOC4wMDM0IDI4LjExODIgMjcuMzU2NSAyOC40NjA4QzI1LjYyOTEgMjkuNDIwMiAyMy44MzI1IDMwLjI2NTggMjEuOTc5NyAzMC45OTE2QzIwLjM4NDggMzEuNTkgMTguOTg2OSAzMS45ODk5IDE3Ljc4NiAzMi4xOTE1QzE2LjU4NTEgMzIuMzkzMSAxNS41OTk4IDMyLjM5NzUgMTQuODMwMyAzMi4yMDVDMTQuMDYxNyAzMi4wMjk1IDEzLjUxNzkgMzEuNjg2NyAxMy4xOTg5IDMxLjE3NjVDMTIuOTUzOSAzMC43NzI1IDEyLjk5NjIgMzAuMTIyMyAxMy4zMjU3IDI5LjIyNjFDMTMuNjUxMiAyOC4zNDA5IDE0Ljk2NzUgMjcuMjc2NSAxNy4yNzQ2IDI2LjAzMzFDMTYuNTQ4NCAyNi40MzE1IDE1LjkzMiAyNi45ODQ3IDE1LjQ3NTkgMjcuNjQ4M0MxNS4wMjQzIDI4LjMxNTkgMTUuMDUyMiAyOS4wNjI4IDE1LjU1OTUgMjkuODg4OEMxNS44MjE4IDMwLjMxMDggMTYuMzA5OCAzMC41NjU1IDE3LjAyMzcgMzAuNjUyOEMxNy43NTU3IDMwLjc0MjggMTguNjI4MSAzMC42ODU2IDE5LjY0MDcgMzAuNDgxNEMyMC43OTM5IDMwLjIzOTggMjEuOTIzNyAyOS45MDk0IDIzLjAxODcgMjkuNDkzNEMyNC4zMjY4IDI4Ljk4NTkgMjUuNTk2NSAyOC4zOTU2IDI2LjgxOSAyNy43MjY1TDI2Ljg3OCAyNy43MTk4WiIvPiYjeGE7PHBhdGggZmlsbD0idXJsKCNwYWludDlfcmFkaWFsXzI2MjJfMzkxMCkiIGQ9Ik0yNi44NDkyIDE4Ljg4ODVDMjYuNDQ0IDE4LjY1NiAyNi4wMDggMTguNDc0NSAyNS41NTIyIDE4LjM0ODZDMjUuMDc3MSAxOC4yMTU5IDI0LjU4MzggMTguMTQ5NSAyNC4wODggMTguMTUxNUMyMy4xMTU0IDE4LjE0MDUgMjIuMTU5MyAxOC4zODcxIDIxLjMyOTcgMTguODYyOEMyMC41MTc3IDE5LjMyNDQgMTkuODQwNyAxOS45Njc3IDE5LjM1OTcgMjAuNzM0OUMxOS43NTEgMjAuMTAyOSAyMC4yNjkyIDE5LjU0NzggMjAuODg1OSAxOS4xMDA0QzIxLjQ5MDkgMTguNjMyNSAyMi4xNzIxIDE4LjI1ODQgMjIuOTAzNCAxNy45OTIyQzIzLjYyMTIgMTcuNzMxMiAyNC4zODQ1IDE3LjU5NzEgMjUuMTU0NSAxNy41OTY4QzI1LjkwNTEgMTcuNTkyNSAyNi42NDM1IDE3Ljc3NDYgMjcuMjk0NSAxOC4xMjQ1QzI5LjAyOTIgMTkuMDM0IDMwLjY5NCAyMC4wNTYgMzIuMjc2NSAyMS4xODNDMzMuNjQ1NSAyMi4xODQ1IDM0LjcxOTcgMjMuMTIwMyAzNS40OTg4IDIzLjk5MDVDMzYuMjc4IDI0Ljg2MDYgMzYuNzggMjUuNjU1NiAzNy4wMDQ4IDI2LjM3NTVDMzcuMjI5NiAyNy4wOTUzIDM3LjE4MTYgMjcuNzEwOCAzNi44NjA3IDI4LjIyMTlDMzYuNjE3NiAyOC42MjU5IDM1Ljk5ODQgMjguOTIwMiAzNS4wMDMxIDI5LjEwNDZDMzQuMDMzNSAyOS4yODQzIDMyLjQxMjkgMjguNzY3NyAzMC4xNDE0IDI3LjU1NDdDMzAuODUwNiAyNy45MTg3IDMxLjY0MDkgMjguMTI0OCAzMi40NTA5IDI4LjE1NThDMzMuMzA0IDI4LjE4MTkgMzMuOTg0MiAyNy43ODE5IDM0LjQ5MTUgMjYuOTU1OEMzNC43MzQ2IDI2LjUzNDcgMzQuNzI0OSAyNi4wMDc0IDM0LjQ2MjcgMjUuMzc0QzM0LjE4MjEgMjQuNzYwMyAzMy42OTQ1IDI0LjA4ODEgMzIuOTk5OSAyMy4zNTc0QzMyLjIwMzcgMjIuNTM2OSAzMS4zMzI5IDIxLjc4MjcgMzAuMzk3MyAyMS4xMDM0QzI5LjI2NyAyMC4yNzQ1IDI4LjA3MjMgMTkuNTI1NiAyNi44MjMzIDE4Ljg2MjhMMjYuODQ5MiAxOC44ODg1WiIvPiYjeGE7PHBhdGggZmlsbD0idXJsKCNwYWludDEwX3JhZGlhbF8yNjIyXzM5MTApIiBkPSJNMjYuNTA2MiAxNC44Mjk4QzI4LjExNjggMTQuODIzMyAyOS43MjU3IDE0LjkyODkgMzEuMzE5NiAxNS4xNDU2QzMyLjYzODUgMTUuMzM0MyAzMy45MzQ1IDE1LjY0MzUgMzUuMTg5IDE2LjA2ODhDMzYuMjg3MSAxNi40NTQ5IDM3LjE1NTIgMTYuOTA0OCAzNy43OTMxIDE3LjQxODZDMzguNDMwMSAxNy45NDUgMzguNzQ5IDE4LjQ5ODQgMzguNzUgMTkuMDc4OEMzOC43NSAxOS43NDY0IDM4LjMzNzQgMjAuMzY2IDM3LjUxMjEgMjAuOTM3NEMzNi42ODY4IDIxLjUwODcgMzUuNTgxOSAyMS45Nzg5IDM0LjE5NzUgMjIuMzQ3OEMzNC42OTMgMjIuMDk4OCAzNS4xNDAyIDIxLjc3MzUgMzUuNTIwNCAyMS4zODU1QzM1LjgxNDkgMjEuMDk3IDM1Ljk4NTMgMjAuNzE2OCAzNS45OTg5IDIwLjMxNzhDMzUuOTk4OSAxOS44NDQ1IDM1Ljc0NTcgMTkuMzg3OSAzNS4yMzk0IDE4Ljk0NzhDMzQuNjAzNCAxOC40NDc2IDMzLjg3OTIgMTguMDU0OCAzMy4wOTk0IDE3Ljc4NzFDMzIuMDU5MSAxNy40MTY4IDMwLjk4NTUgMTcuMTM0NCAyOS44OTE0IDE2Ljk0MzVDMjguNTgyMyAxNi43MDU5IDI3LjI1NTMgMTYuNTY1MSAyNS45MjI2IDE2LjUyMjRWMTQuODI5OEgyNi41MDYyWiIvPiYjeGE7PHBhdGggZmlsbD0idXJsKCNwYWludDExX3JhZGlhbF8yNjIyXzM5MTApIiBkPSJNMjQuMDkwOSAxNi4yNTI0QzI0LjA5MDkgMTYuMDIyMSAyNC4wNjI4IDE1Ljc5MjUgMjQuMDA3MyAxNS41NjgxQzIzLjk1NDIgMTUuMzUyNSAyMy44ODI3IDE1LjE0MTIgMjMuNzkzNSAxNC45MzYzQzIzLjI3MyAxNC45NzU3IDIyLjc3NjUgMTUuMDI0OCAyMi4zMDM5IDE1LjA4MzVDMjEuODI2NCAxNS4xNDI5IDIxLjM2MTkgMTUuMjE3NiAyMC45MTA0IDE1LjMwNzZMMjEuMDc5IDE1LjI4MTlDMjAuOTg1MyAxNS40NTc0IDIwLjg4NTkgMTUuNjY1MyAyMC43ODM1IDE1LjkwMTVDMjAuNjgxMiAxNi4xMzc3IDIwLjU5MTkgMTYuMzcxMiAyMC41MTY5IDE2LjU5OTNMMjAuNDYwNyAxNi43MDQ2QzIxLjA2MjIgMTYuNjQ5NyAyMS42NjI2IDE2LjYwNDcgMjIuMjYyMSAxNi41Njk2QzIyLjg2MTYgMTYuNTM0NSAyMy40NjIxIDE2LjUxNyAyNC4wNjM1IDE2LjUxN0MyNC4wODE3IDE2LjQ3OTcgMjQuMDkxMSAxNi40MzkyIDI0LjA5MDkgMTYuMzk4MlYxNi4yNTI0WiIvPiYjeGE7PHBhdGggZmlsbD0idXJsKCNwYWludDEyX3JhZGlhbF8yNjIyXzM5MTApIiBkPSJNMjkuNDIwNSAyMS44OTExQzI5LjI5NTUgMjEuNDg1NiAyOS4xMTI3IDIxLjA5NzUgMjguODc2OSAyMC43Mzc2QzI5LjA5NzkgMjEuMTA1NCAyOS4yNzk4IDIxLjQ5MTcgMjkuNDIwNSAyMS44OTExWk0xOS45ODggMzIuMDUxMUwxOS45ODczIDMyLjA1NDNDMTkuOTg3NyAzMi4wNDAyIDE5Ljk4OCAzMi4wMjYxIDE5Ljk4OCAzMi4wMTJWMzIuMDUxMVpNMjkuNTQ4IDI4LjI4MTlMMjkuNTUxMyAyOC4yNzcyTDI5LjQ5NTEgMjguMjUwMkwyOS41NDggMjguMjgxOVpNMjMuODA5OSAxNC45MzUxTDIzLjc4MTEgMTQuOTA4MUwyMy43OTM1IDE0LjkzNjNMMjMuODA5OSAxNC45MzUxWk0zMC40ODIzIDI2LjcxODNMMzAuNDg1NiAyNi43MjAyQzMwLjQ1NjMgMjYuNzY0NyAzMC40MjY5IDI2LjgwOTEgMzAuMzk3MyAyNi44NTMzTDMwLjQ4MjMgMjYuNzE4M1pNMzMuMjQwNiAyMC44MTMyTDMzLjI0MjMgMjAuODE0NEwzMy4yMTE4IDIwLjkxODVMMzMuMjQwNiAyMC44MTMyWiIgY2xpcC1ydWxlPSJldmVub2RkIiBmaWxsLXJ1bGU9ImV2ZW5vZGQiLz4mI3hhOzxwYXRoIGZpbGw9InVybCgjcGFpbnQxM19yYWRpYWxfMjYyMl8zOTEwKSIgZD0iTTE0LjU3ODEgMTguMTc3MUwxNC42MDU1IDE4LjE1MTVDMTQuOTQ4MSAxNy43MDc2IDE1LjM2NjkgMTcuMzE5OSAxNS44NDQ4IDE3LjAwNDJDMTYuMzM4IDE2LjY3NiAxNi44Nzc5IDE2LjQxNDMgMTcuNDQ4OCAxNi4yMjY4QzE3LjQxMTMgMTYuMzg0NyAxNy4zNzM5IDE2LjU1MjEgMTcuMzM2NCAxNi43Mjc1QzE3LjI5NzUgMTYuOTA5NyAxNy4yNzg3IDE3LjA5NTEgMTcuMjgwMiAxNy4yODA5TDE3LjE5NTIgMTcuMzA3OUMxNi43MzI5IDE3LjQxMSAxNi4yNzczIDE3LjUzODUgMTUuODMwNCAxNy42ODk5QzE1LjQwMTEgMTcuODM0OCAxNC45ODI3IDE4LjAwNjYgMTQuNTc4MSAxOC4yMDQxVjE4LjE3NzFaIi8+JiN4YTs8L2c+JiN4YTs8ZGVmcz4mI3hhOzxsaW5lYXJHcmFkaWVudCBncmFkaWVudFVuaXRzPSJ1c2VyU3BhY2VPblVzZSIgeTI9IjQ0LjI3OTIiIHgyPSI0MS41NjQ1IiB5MT0iNi44NDc3NSIgeDE9IjQuODUyODciIGlkPSJwYWludDBfbGluZWFyXzI2MjJfMzkxMCI+JiN4YTs8c3RvcCBzdG9wLWNvbG9yPSJ3aGl0ZSIvPiYjeGE7PHN0b3Agc3RvcC1jb2xvcj0iI0VBRUNFRSIgb2Zmc2V0PSIxIi8+JiN4YTs8L2xpbmVhckdyYWRpZW50PiYjeGE7PHJhZGlhbEdyYWRpZW50IGdyYWRpZW50VHJhbnNmb3JtPSJ0cmFuc2xhdGUoMTYuMDQ2OSAxNC41ODcxKSByb3RhdGUoNDUpIHNjYWxlKDI2Ljc0MDMgMzIuNDUzMSkiIGdyYWRpZW50VW5pdHM9InVzZXJTcGFjZU9uVXNlIiByPSIxIiBjeT0iMCIgY3g9IjAiIGlkPSJwYWludDFfcmFkaWFsXzI2MjJfMzkxMCI+JiN4YTs8c3RvcCBzdG9wLWNvbG9yPSIjMDBCQkZGIi8+JiN4YTs8c3RvcCBzdG9wLWNvbG9yPSIjMDA4QkZGIiBvZmZzZXQ9IjEiLz4mI3hhOzwvcmFkaWFsR3JhZGllbnQ+JiN4YTs8cmFkaWFsR3JhZGllbnQgZ3JhZGllbnRUcmFuc2Zvcm09InRyYW5zbGF0ZSgxNi4wNDY5IDE0LjU4NzEpIHJvdGF0ZSg0NSkgc2NhbGUoMjYuNzQwMyAzMi40NTMxKSIgZ3JhZGllbnRVbml0cz0idXNlclNwYWNlT25Vc2UiIHI9IjEiIGN5PSIwIiBjeD0iMCIgaWQ9InBhaW50Ml9yYWRpYWxfMjYyMl8zOTEwIj4mI3hhOzxzdG9wIHN0b3AtY29sb3I9IiMwMEJCRkYiLz4mI3hhOzxzdG9wIHN0b3AtY29sb3I9IiMwMDhCRkYiIG9mZnNldD0iMSIvPiYjeGE7PC9yYWRpYWxHcmFkaWVudD4mI3hhOzxyYWRpYWxHcmFkaWVudCBncmFkaWVudFRyYW5zZm9ybT0idHJhbnNsYXRlKDE2LjA0NjkgMTQuNTg3MSkgcm90YXRlKDQ1KSBzY2FsZSgyNi43NDAzIDMyLjQ1MzEpIiBncmFkaWVudFVuaXRzPSJ1c2VyU3BhY2VPblVzZSIgcj0iMSIgY3k9IjAiIGN4PSIwIiBpZD0icGFpbnQzX3JhZGlhbF8yNjIyXzM5MTAiPiYjeGE7PHN0b3Agc3RvcC1jb2xvcj0iIzAwQkJGRiIvPiYjeGE7PHN0b3Agc3RvcC1jb2xvcj0iIzAwOEJGRiIgb2Zmc2V0PSIxIi8+JiN4YTs8L3JhZGlhbEdyYWRpZW50PiYjeGE7PHJhZGlhbEdyYWRpZW50IGdyYWRpZW50VHJhbnNmb3JtPSJ0cmFuc2xhdGUoMTYuMDQ2OSAxNC41ODcxKSByb3RhdGUoNDUpIHNjYWxlKDI2Ljc0MDMgMzIuNDUzMSkiIGdyYWRpZW50VW5pdHM9InVzZXJTcGFjZU9uVXNlIiByPSIxIiBjeT0iMCIgY3g9IjAiIGlkPSJwYWludDRfcmFkaWFsXzI2MjJfMzkxMCI+JiN4YTs8c3RvcCBzdG9wLWNvbG9yPSIjMDBCQkZGIi8+JiN4YTs8c3RvcCBzdG9wLWNvbG9yPSIjMDA4QkZGIiBvZmZzZXQ9IjEiLz4mI3hhOzwvcmFkaWFsR3JhZGllbnQ+JiN4YTs8cmFkaWFsR3JhZGllbnQgZ3JhZGllbnRUcmFuc2Zvcm09InRyYW5zbGF0ZSgxNS45MzcgMTQuNDk5Mykgcm90YXRlKDQ1LjMxODEpIHNjYWxlKDI2LjU4NDMgNTAuMjI5MSkiIGdyYWRpZW50VW5pdHM9InVzZXJTcGFjZU9uVXNlIiByPSIxIiBjeT0iMCIgY3g9IjAiIGlkPSJwYWludDVfcmFkaWFsXzI2MjJfMzkxMCI+JiN4YTs8c3RvcCBzdG9wLWNvbG9yPSIjMDE5NUZGIi8+JiN4YTs8c3RvcCBzdG9wLWNvbG9yPSIjMTE0N0U5IiBvZmZzZXQ9IjEiLz4mI3hhOzwvcmFkaWFsR3JhZGllbnQ+JiN4YTs8cmFkaWFsR3JhZGllbnQgZ3JhZGllbnRUcmFuc2Zvcm09InRyYW5zbGF0ZSgxNS45MzcgMTQuNDk5Mykgcm90YXRlKDQ1LjMxODEpIHNjYWxlKDI2LjU4NDMgNTAuMjI5MSkiIGdyYWRpZW50VW5pdHM9InVzZXJTcGFjZU9uVXNlIiByPSIxIiBjeT0iMCIgY3g9IjAiIGlkPSJwYWludDZfcmFkaWFsXzI2MjJfMzkxMCI+JiN4YTs8c3RvcCBzdG9wLWNvbG9yPSIjMDE5NUZGIi8+JiN4YTs8c3RvcCBzdG9wLWNvbG9yPSIjMTE0N0U5IiBvZmZzZXQ9IjEiLz4mI3hhOzwvcmFkaWFsR3JhZGllbnQ+JiN4YTs8cmFkaWFsR3JhZGllbnQgZ3JhZGllbnRUcmFuc2Zvcm09InRyYW5zbGF0ZSgxNS45MzcgMTQuNDk5Mykgcm90YXRlKDQ1LjMxODEpIHNjYWxlKDI2LjU4NDMgNTAuMjI5MSkiIGdyYWRpZW50VW5pdHM9InVzZXJTcGFjZU9uVXNlIiByPSIxIiBjeT0iMCIgY3g9IjAiIGlkPSJwYWludDdfcmFkaWFsXzI2MjJfMzkxMCI+JiN4YTs8c3RvcCBzdG9wLWNvbG9yPSIjMDE5NUZGIi8+JiN4YTs8c3RvcCBzdG9wLWNvbG9yPSIjMTE0N0U5IiBvZmZzZXQ9IjEiLz4mI3hhOzwvcmFkaWFsR3JhZGllbnQ+JiN4YTs8cmFkaWFsR3JhZGllbnQgZ3JhZGllbnRUcmFuc2Zvcm09InRyYW5zbGF0ZSgxNS45MzA5IDE0LjU5NjYpIHJvdGF0ZSg0NSkgc2NhbGUoMjYuNTk3OCAyNC4yMzc2KSIgZ3JhZGllbnRVbml0cz0idXNlclNwYWNlT25Vc2UiIHI9IjEiIGN5PSIwIiBjeD0iMCIgaWQ9InBhaW50OF9yYWRpYWxfMjYyMl8zOTEwIj4mI3hhOzxzdG9wIHN0b3AtY29sb3I9IiMxMzQ4RkYiLz4mI3hhOzxzdG9wIHN0b3AtY29sb3I9IiMwNjIzOEQiIG9mZnNldD0iMSIvPiYjeGE7PC9yYWRpYWxHcmFkaWVudD4mI3hhOzxyYWRpYWxHcmFkaWVudCBncmFkaWVudFRyYW5zZm9ybT0idHJhbnNsYXRlKDE1LjkzNyAxNC40OTkzKSByb3RhdGUoNDUuMzE4MSkgc2NhbGUoMjYuNTg0MyA1MC4yMjkxKSIgZ3JhZGllbnRVbml0cz0idXNlclNwYWNlT25Vc2UiIHI9IjEiIGN5PSIwIiBjeD0iMCIgaWQ9InBhaW50OV9yYWRpYWxfMjYyMl8zOTEwIj4mI3hhOzxzdG9wIHN0b3AtY29sb3I9IiMwMTk1RkYiLz4mI3hhOzxzdG9wIHN0b3AtY29sb3I9IiMxMTQ3RTkiIG9mZnNldD0iMSIvPiYjeGE7PC9yYWRpYWxHcmFkaWVudD4mI3hhOzxyYWRpYWxHcmFkaWVudCBncmFkaWVudFRyYW5zZm9ybT0idHJhbnNsYXRlKDE1LjkzMDkgMTQuNTk2Nikgcm90YXRlKDQ1KSBzY2FsZSgyNi41OTc4IDI0LjIzNzYpIiBncmFkaWVudFVuaXRzPSJ1c2VyU3BhY2VPblVzZSIgcj0iMSIgY3k9IjAiIGN4PSIwIiBpZD0icGFpbnQxMF9yYWRpYWxfMjYyMl8zOTEwIj4mI3hhOzxzdG9wIHN0b3AtY29sb3I9IiMxMzQ4RkYiLz4mI3hhOzxzdG9wIHN0b3AtY29sb3I9IiMwNjIzOEQiIG9mZnNldD0iMSIvPiYjeGE7PC9yYWRpYWxHcmFkaWVudD4mI3hhOzxyYWRpYWxHcmFkaWVudCBncmFkaWVudFRyYW5zZm9ybT0idHJhbnNsYXRlKDE1LjkzMDkgMTQuNTk2Nikgcm90YXRlKDQ1KSBzY2FsZSgyNi41OTc4IDI0LjIzNzYpIiBncmFkaWVudFVuaXRzPSJ1c2VyU3BhY2VPblVzZSIgcj0iMSIgY3k9IjAiIGN4PSIwIiBpZD0icGFpbnQxMV9yYWRpYWxfMjYyMl8zOTEwIj4mI3hhOzxzdG9wIHN0b3AtY29sb3I9IiMxMzQ4RkYiLz4mI3hhOzxzdG9wIHN0b3AtY29sb3I9IiMwNjIzOEQiIG9mZnNldD0iMSIvPiYjeGE7PC9yYWRpYWxHcmFkaWVudD4mI3hhOzxyYWRpYWxHcmFkaWVudCBncmFkaWVudFRyYW5zZm9ybT0idHJhbnNsYXRlKDE1LjkzMDkgMTQuNTk2Nikgcm90YXRlKDQ1KSBzY2FsZSgyNi41OTc4IDI0LjIzNzYpIiBncmFkaWVudFVuaXRzPSJ1c2VyU3BhY2VPblVzZSIgcj0iMSIgY3k9IjAiIGN4PSIwIiBpZD0icGFpbnQxMl9yYWRpYWxfMjYyMl8zOTEwIj4mI3hhOzxzdG9wIHN0b3AtY29sb3I9IiMxMzQ4RkYiLz4mI3hhOzxzdG9wIHN0b3AtY29sb3I9IiMwNjIzOEQiIG9mZnNldD0iMSIvPiYjeGE7PC9yYWRpYWxHcmFkaWVudD4mI3hhOzxyYWRpYWxHcmFkaWVudCBncmFkaWVudFRyYW5zZm9ybT0idHJhbnNsYXRlKDE1LjkzMDkgMTQuNTk2Nikgcm90YXRlKDQ1KSBzY2FsZSgyNi41OTc4IDI0LjIzNzYpIiBncmFkaWVudFVuaXRzPSJ1c2VyU3BhY2VPblVzZSIgcj0iMSIgY3k9IjAiIGN4PSIwIiBpZD0icGFpbnQxM19yYWRpYWxfMjYyMl8zOTEwIj4mI3hhOzxzdG9wIHN0b3AtY29sb3I9IiMxMzQ4RkYiLz4mI3hhOzxzdG9wIHN0b3AtY29sb3I9IiMwNjIzOEQiIG9mZnNldD0iMSIvPiYjeGE7PC9yYWRpYWxHcmFkaWVudD4mI3hhOzxjbGlwUGF0aCBpZD0iY2xpcDBfMjYyMl8zOTEwIj4mI3hhOzxyZWN0IHRyYW5zZm9ybT0idHJhbnNsYXRlKDAuNSAwLjAzNDkxMjEpIiBmaWxsPSJ3aGl0ZSIgaGVpZ2h0PSI0OCIgd2lkdGg9IjQ4Ii8+JiN4YTs8L2NsaXBQYXRoPiYjeGE7PC9kZWZzPiYjeGE7PC9zdmc+;points=[[0,0,0,0,0],[0,0.25,0,0,0],[0,0.5,0,0,0],[0,0.75,0,0,0],[0.25,0,0,0,0],[0.5,0,0,0,0],[0.75,0,0,0,0],[1,0,0,0,0],[1,0.25,0,0,0],[1,0.5,0,0,0],[1,0.75,0,0,0]];" parent="1" vertex="1">
          <mxGeometry x="593.66" y="426.94" width="26" height="26" as="geometry" />
        </mxCell>
        <mxCell id="h2hpR55Zg2pIGTTugXfR-1" value="&lt;div&gt;&lt;br&gt;&lt;/div&gt;" style="rounded=1;whiteSpace=wrap;html=1;strokeColor=none;fillColor=#D1EFFF;arcSize=12;absoluteArcSize=1;imageWidth=64;imageHeight=64;strokeWidth=1.5;dashed=1;dashPattern=1 2;align=center;verticalAlign=middle;fontFamily=Helvetica;fontSize=11;fontColor=light-dark(#00185A,#CCDDFF);fontStyle=1;gradientColor=none;gradientDirection=south;" parent="1" vertex="1">
          <mxGeometry x="593.22" y="838" width="480" height="45" as="geometry" />
        </mxCell>
        <mxCell id="h2hpR55Zg2pIGTTugXfR-2" value="&lt;font style=&quot;font-size: 11px;&quot;&gt;&lt;b style=&quot;&quot;&gt;SAP BW Inbound Space&lt;/b&gt;&lt;/font&gt;" style="text;whiteSpace=wrap;html=1;align=left;spacing=0;container=0;fontColor=light-dark(#00185A,#C5D9FF);fontSize=15;verticalAlign=middle;" parent="1" vertex="1">
          <mxGeometry x="653.66" y="705" width="125" height="24" as="geometry" />
        </mxCell>
        <mxCell id="h2hpR55Zg2pIGTTugXfR-20" style="edgeStyle=orthogonalEdgeStyle;rounded=0;orthogonalLoop=1;jettySize=auto;html=1;" parent="1" source="h2hpR55Zg2pIGTTugXfR-3" target="h2hpR55Zg2pIGTTugXfR-4" edge="1">
          <mxGeometry relative="1" as="geometry" />
        </mxCell>
        <mxCell id="h2hpR55Zg2pIGTTugXfR-3" value="&lt;span&gt;File&lt;/span&gt;" style="rounded=1;whiteSpace=wrap;html=1;strokeColor=none;fillColor=#D1EFFF;arcSize=12;absoluteArcSize=1;imageWidth=64;imageHeight=64;strokeWidth=1.5;dashed=1;dashPattern=1 2;fontSize=13;fontStyle=1;fontColor=light-dark(#00185A,#CCDDFF);align=center;verticalAlign=middle;fontFamily=Helvetica;gradientColor=none;gradientDirection=south;" parent="1" vertex="1">
          <mxGeometry x="624" y="733" width="60" height="25" as="geometry" />
        </mxCell>
        <mxCell id="h2hpR55Zg2pIGTTugXfR-4" value="Delta Table" style="rounded=1;whiteSpace=wrap;html=1;strokeColor=none;fillColor=#D1EFFF;arcSize=12;absoluteArcSize=1;imageWidth=64;imageHeight=64;strokeWidth=1.5;dashed=1;dashPattern=1 2;fontSize=13;fontStyle=1;fontColor=light-dark(#00185A,#CCDDFF);align=center;verticalAlign=middle;fontFamily=Helvetica;gradientColor=none;gradientDirection=south;" parent="1" vertex="1">
          <mxGeometry x="736" y="732.5" width="74" height="25" as="geometry" />
        </mxCell>
        <mxCell id="h2hpR55Zg2pIGTTugXfR-6" value="" style="rounded=1;whiteSpace=wrap;html=1;strokeColor=none;fillColor=#FFFFFF;arcSize=15;absoluteArcSize=1;imageWidth=64;imageHeight=64;strokeWidth=1.5;fontColor=#00185A;align=center;verticalAlign=middle;spacingTop=0;spacing=0;fontFamily=Arial;fontSize=12;fontStyle=0;" parent="1" vertex="1">
          <mxGeometry x="616.66" y="777.5" width="409.34" height="34.5" as="geometry" />
        </mxCell>
        <mxCell id="h2hpR55Zg2pIGTTugXfR-7" value="&lt;font style=&quot;font-size: 11px;&quot;&gt;&lt;b style=&quot;&quot;&gt;Apache Spark&lt;/b&gt;&lt;/font&gt;" style="text;whiteSpace=wrap;html=1;align=left;spacing=0;container=0;fontColor=light-dark(#00185A,#C5D9FF);fontSize=15;verticalAlign=middle;" parent="1" vertex="1">
          <mxGeometry x="624" y="778.5" width="125" height="24" as="geometry" />
        </mxCell>
        <mxCell id="h2hpR55Zg2pIGTTugXfR-8" value="Transformation Job" style="rounded=1;whiteSpace=wrap;html=1;strokeColor=none;fillColor=#D1EFFF;arcSize=12;absoluteArcSize=1;imageWidth=64;imageHeight=64;strokeWidth=1.5;dashed=1;dashPattern=1 2;fontSize=13;fontStyle=1;fontColor=light-dark(#00185A,#CCDDFF);align=center;verticalAlign=middle;fontFamily=Helvetica;gradientColor=none;gradientDirection=south;" parent="1" vertex="1">
          <mxGeometry x="825" y="782.25" width="187" height="25" as="geometry" />
        </mxCell>
        <mxCell id="h2hpR55Zg2pIGTTugXfR-9" value="&lt;span&gt;Delta Table&lt;/span&gt;" style="rounded=1;whiteSpace=wrap;html=1;strokeColor=none;fillColor=#D1EFFF;arcSize=12;absoluteArcSize=1;imageWidth=64;imageHeight=64;strokeWidth=1.5;dashed=1;dashPattern=1 2;fontSize=13;fontStyle=1;fontColor=light-dark(#00185A,#CCDDFF);align=center;verticalAlign=middle;fontFamily=Helvetica;gradientColor=none;gradientDirection=south;" parent="1" vertex="1">
          <mxGeometry x="832" y="733" width="89" height="25" as="geometry" />
        </mxCell>
        <mxCell id="h2hpR55Zg2pIGTTugXfR-10" value="&lt;font style=&quot;font-size: 11px;&quot;&gt;&lt;b style=&quot;&quot;&gt;Customer Space&lt;/b&gt;&lt;/font&gt;" style="text;whiteSpace=wrap;html=1;align=left;spacing=0;container=0;fontColor=light-dark(#00185A,#C5D9FF);fontSize=15;verticalAlign=middle;" parent="1" vertex="1">
          <mxGeometry x="881" y="705" width="125" height="24" as="geometry" />
        </mxCell>
        <mxCell id="h2hpR55Zg2pIGTTugXfR-11" value="&lt;span&gt;Delta Table&lt;/span&gt;" style="rounded=1;whiteSpace=wrap;html=1;strokeColor=none;fillColor=#D1EFFF;arcSize=12;absoluteArcSize=1;imageWidth=64;imageHeight=64;strokeWidth=1.5;dashed=1;dashPattern=1 2;fontSize=13;fontStyle=1;fontColor=light-dark(#00185A,#CCDDFF);align=center;verticalAlign=middle;fontFamily=Helvetica;gradientColor=none;gradientDirection=south;" parent="1" vertex="1">
          <mxGeometry x="931.23" y="732.5" width="83" height="25" as="geometry" />
        </mxCell>
        <mxCell id="h2hpR55Zg2pIGTTugXfR-14" value="&lt;font style=&quot;font-size: 11px;&quot;&gt;S/4HANA data products&lt;/font&gt;" style="rounded=1;whiteSpace=wrap;html=1;strokeColor=none;fillColor=#FFFFFF;arcSize=15;absoluteArcSize=1;imageWidth=64;imageHeight=64;strokeWidth=1.5;fontColor=#00185A;align=center;verticalAlign=middle;spacingTop=0;spacing=0;fontFamily=Arial;fontSize=12;fontStyle=0;" parent="1" vertex="1">
          <mxGeometry x="677" y="846.5" width="140" height="28" as="geometry" />
        </mxCell>
        <mxCell id="h2hpR55Zg2pIGTTugXfR-15" value="&lt;font style=&quot;font-size: 11px;&quot;&gt;BW data products&lt;/font&gt;" style="rounded=1;whiteSpace=wrap;html=1;strokeColor=none;fillColor=#FFFFFF;arcSize=15;absoluteArcSize=1;imageWidth=64;imageHeight=64;strokeWidth=1.5;fontColor=#00185A;align=center;verticalAlign=middle;spacingTop=0;spacing=0;fontFamily=Arial;fontSize=12;fontStyle=0;" parent="1" vertex="1">
          <mxGeometry x="922" y="847" width="99" height="28" as="geometry" />
        </mxCell>
        <mxCell id="h2hpR55Zg2pIGTTugXfR-16" value="&lt;font face=&quot;arial&quot;&gt;&lt;b&gt;Delta Share&lt;/b&gt;&lt;/font&gt;" style="text;html=1;align=left;verticalAlign=middle;resizable=0;points=[[0,0.5,0,0,0],[0.5,0,0,0,0],[0.5,1,0,0,0],[1,0.5,0,0,0]];autosize=1;strokeColor=none;fillColor=none;fontSize=12;fontColor=light-dark(#00185A,#C5D9FF);fontFamily=Helvetica;" parent="1" vertex="1">
          <mxGeometry x="602" y="844" width="84" height="26" as="geometry" />
        </mxCell>
        <mxCell id="h2hpR55Zg2pIGTTugXfR-29" style="edgeStyle=orthogonalEdgeStyle;rounded=0;orthogonalLoop=1;jettySize=auto;html=1;" parent="1" source="h2hpR55Zg2pIGTTugXfR-17" target="d6p9PFXJ9PnHoYDoL1wJ-23" edge="1">
          <mxGeometry relative="1" as="geometry">
            <Array as="points">
              <mxPoint x="759" y="602" />
              <mxPoint x="847" y="602" />
            </Array>
          </mxGeometry>
        </mxCell>
        <mxCell id="h2hpR55Zg2pIGTTugXfR-17" value="&lt;div&gt;Local Table(File)&lt;/div&gt;" style="rounded=1;whiteSpace=wrap;html=1;strokeColor=none;fillColor=#FFFFFF;arcSize=15;absoluteArcSize=1;imageWidth=64;imageHeight=64;strokeWidth=1.5;fontColor=#00185A;align=center;verticalAlign=middle;spacingTop=0;spacing=0;fontFamily=Arial;fontSize=12;fontStyle=0;" parent="1" vertex="1">
          <mxGeometry x="687" y="608" width="145" height="29" as="geometry" />
        </mxCell>
        <mxCell id="h2hpR55Zg2pIGTTugXfR-30" style="edgeStyle=orthogonalEdgeStyle;rounded=0;orthogonalLoop=1;jettySize=auto;html=1;exitX=0.5;exitY=0;exitDx=0;exitDy=0;endArrow=none;endFill=0;" parent="1" source="h2hpR55Zg2pIGTTugXfR-18" target="d6p9PFXJ9PnHoYDoL1wJ-13" edge="1">
          <mxGeometry relative="1" as="geometry">
            <mxPoint x="848" y="590" as="targetPoint" />
            <Array as="points">
              <mxPoint x="882" y="600" />
              <mxPoint x="882" y="600" />
            </Array>
          </mxGeometry>
        </mxCell>
        <mxCell id="h2hpR55Zg2pIGTTugXfR-32" value="" style="edgeStyle=orthogonalEdgeStyle;rounded=0;orthogonalLoop=1;jettySize=auto;html=1;endArrow=none;endFill=0;exitX=0.5;exitY=0;exitDx=0;exitDy=0;" parent="1" source="h2hpR55Zg2pIGTTugXfR-18" edge="1">
          <mxGeometry relative="1" as="geometry">
            <mxPoint x="847" y="602" as="targetPoint" />
            <Array as="points">
              <mxPoint x="931" y="602" />
            </Array>
          </mxGeometry>
        </mxCell>
        <mxCell id="h2hpR55Zg2pIGTTugXfR-18" value="&lt;div&gt;Local Table(File)&lt;/div&gt;" style="rounded=1;whiteSpace=wrap;html=1;strokeColor=none;fillColor=#FFFFFF;arcSize=15;absoluteArcSize=1;imageWidth=64;imageHeight=64;strokeWidth=1.5;fontColor=#00185A;align=center;verticalAlign=middle;spacingTop=0;spacing=0;fontFamily=Arial;fontSize=12;fontStyle=0;" parent="1" vertex="1">
          <mxGeometry x="853" y="608" width="155" height="29" as="geometry" />
        </mxCell>
        <mxCell id="h2hpR55Zg2pIGTTugXfR-19" style="edgeStyle=orthogonalEdgeStyle;rounded=0;orthogonalLoop=1;jettySize=auto;html=1;entryX=0;entryY=0.5;entryDx=0;entryDy=0;exitX=0.5;exitY=1;exitDx=0;exitDy=0;" parent="1" source="d6p9PFXJ9PnHoYDoL1wJ-6" target="h2hpR55Zg2pIGTTugXfR-3" edge="1">
          <mxGeometry relative="1" as="geometry" />
        </mxCell>
        <mxCell id="h2hpR55Zg2pIGTTugXfR-21" style="edgeStyle=orthogonalEdgeStyle;rounded=0;orthogonalLoop=1;jettySize=auto;html=1;entryX=0.323;entryY=0.033;entryDx=0;entryDy=0;entryPerimeter=0;exitX=0.17;exitY=1.014;exitDx=0;exitDy=0;exitPerimeter=0;" parent="1" source="h2hpR55Zg2pIGTTugXfR-4" target="h2hpR55Zg2pIGTTugXfR-1" edge="1">
          <mxGeometry relative="1" as="geometry" />
        </mxCell>
        <mxCell id="h2hpR55Zg2pIGTTugXfR-22" style="edgeStyle=orthogonalEdgeStyle;rounded=0;orthogonalLoop=1;jettySize=auto;html=1;entryX=0;entryY=0.5;entryDx=0;entryDy=0;exitX=0.661;exitY=1.013;exitDx=0;exitDy=0;exitPerimeter=0;" parent="1" source="h2hpR55Zg2pIGTTugXfR-4" target="h2hpR55Zg2pIGTTugXfR-8" edge="1">
          <mxGeometry relative="1" as="geometry" />
        </mxCell>
        <mxCell id="h2hpR55Zg2pIGTTugXfR-23" style="edgeStyle=orthogonalEdgeStyle;rounded=0;orthogonalLoop=1;jettySize=auto;html=1;exitX=1;exitY=0.5;exitDx=0;exitDy=0;" parent="1" source="h2hpR55Zg2pIGTTugXfR-11" edge="1">
          <mxGeometry relative="1" as="geometry">
            <mxPoint x="1040" y="733" as="sourcePoint" />
            <mxPoint x="1022" y="860" as="targetPoint" />
            <Array as="points">
              <mxPoint x="1041" y="745" />
              <mxPoint x="1041" y="860" />
            </Array>
          </mxGeometry>
        </mxCell>
        <mxCell id="h2hpR55Zg2pIGTTugXfR-25" style="edgeStyle=orthogonalEdgeStyle;rounded=0;orthogonalLoop=1;jettySize=auto;html=1;entryX=0.276;entryY=-0.027;entryDx=0;entryDy=0;exitX=0.5;exitY=1;exitDx=0;exitDy=0;entryPerimeter=0;" parent="1" source="h2hpR55Zg2pIGTTugXfR-9" target="h2hpR55Zg2pIGTTugXfR-8" edge="1">
          <mxGeometry relative="1" as="geometry">
            <mxPoint x="782" y="758" as="sourcePoint" />
            <mxPoint x="822" y="795" as="targetPoint" />
          </mxGeometry>
        </mxCell>
        <mxCell id="h2hpR55Zg2pIGTTugXfR-26" style="edgeStyle=orthogonalEdgeStyle;rounded=0;orthogonalLoop=1;jettySize=auto;html=1;entryX=0.409;entryY=0.987;entryDx=0;entryDy=0;exitX=0.75;exitY=0;exitDx=0;exitDy=0;entryPerimeter=0;" parent="1" source="h2hpR55Zg2pIGTTugXfR-8" target="h2hpR55Zg2pIGTTugXfR-11" edge="1">
          <mxGeometry relative="1" as="geometry">
            <mxPoint x="871" y="757" as="sourcePoint" />
            <mxPoint x="871" y="781" as="targetPoint" />
          </mxGeometry>
        </mxCell>
        <mxCell id="h2hpR55Zg2pIGTTugXfR-27" style="edgeStyle=orthogonalEdgeStyle;rounded=0;orthogonalLoop=1;jettySize=auto;html=1;entryX=0.062;entryY=1.01;entryDx=0;entryDy=0;entryPerimeter=0;exitX=0.337;exitY=0.08;exitDx=0;exitDy=0;exitPerimeter=0;" parent="1" edge="1">
          <mxGeometry relative="1" as="geometry">
            <mxPoint x="875.9930000000002" y="734" as="sourcePoint" />
            <mxPoint x="876.6100000000001" y="636.29" as="targetPoint" />
          </mxGeometry>
        </mxCell>
        <mxCell id="h2hpR55Zg2pIGTTugXfR-28" style="edgeStyle=orthogonalEdgeStyle;rounded=0;orthogonalLoop=1;jettySize=auto;html=1;entryX=0.062;entryY=1.01;entryDx=0;entryDy=0;entryPerimeter=0;exitX=0.337;exitY=0.08;exitDx=0;exitDy=0;exitPerimeter=0;" parent="1" edge="1">
          <mxGeometry relative="1" as="geometry">
            <mxPoint x="795.9530000000002" y="732.5" as="sourcePoint" />
            <mxPoint x="796.5700000000002" y="634.79" as="targetPoint" />
          </mxGeometry>
        </mxCell>
        <mxCell id="x991hXPY82BB7YkR8JwQ-1" value="&lt;span&gt;Unity Catalog&lt;/span&gt;" style="rounded=1;whiteSpace=wrap;html=1;strokeColor=none;fillColor=#D1EFFF;arcSize=12;absoluteArcSize=1;imageWidth=64;imageHeight=64;strokeWidth=1.5;dashed=1;dashPattern=1 2;fontSize=13;fontStyle=1;fontColor=light-dark(#00185A,#CCDDFF);align=center;verticalAlign=middle;fontFamily=Helvetica;gradientColor=none;gradientDirection=south;" vertex="1" parent="1">
          <mxGeometry x="1194.66" y="797" width="195.34" height="86" as="geometry" />
        </mxCell>
        <mxCell id="x991hXPY82BB7YkR8JwQ-2" style="edgeStyle=orthogonalEdgeStyle;rounded=0;orthogonalLoop=1;jettySize=auto;html=1;entryX=-0.002;entryY=0.934;entryDx=0;entryDy=0;entryPerimeter=0;" edge="1" parent="1" source="h2hpR55Zg2pIGTTugXfR-1" target="d6p9PFXJ9PnHoYDoL1wJ-25">
          <mxGeometry relative="1" as="geometry" />
        </mxCell>
        <mxCell id="x991hXPY82BB7YkR8JwQ-3" value="&lt;font face=&quot;arial&quot;&gt;&lt;span&gt;Zero-copy&lt;/span&gt;&lt;/font&gt;" style="text;html=1;align=center;verticalAlign=middle;resizable=0;points=[[0,0.5,0,0,0],[0.5,0,0,0,0],[0.5,1,0,0,0],[1,0.5,0,0,0]];autosize=1;strokeColor=none;fillColor=none;fontSize=12;fontColor=light-dark(#00185A,#C5D9FF);fontFamily=Helvetica;" vertex="1" parent="1">
          <mxGeometry x="1095.9999999999998" y="838" width="72" height="26" as="geometry" />
        </mxCell>
        <mxCell id="x991hXPY82BB7YkR8JwQ-4" value="&lt;font style=&quot;font-size: 11px;&quot;&gt;LoB data products&lt;/font&gt;" style="rounded=1;whiteSpace=wrap;html=1;strokeColor=none;fillColor=#FFFFFF;arcSize=15;absoluteArcSize=1;imageWidth=64;imageHeight=64;strokeWidth=1.5;fontColor=#00185A;align=center;verticalAlign=middle;spacingTop=0;spacing=0;fontFamily=Arial;fontSize=12;fontStyle=0;" vertex="1" parent="1">
          <mxGeometry x="819" y="846.5" width="100" height="28" as="geometry" />
        </mxCell>
      </root>
    </mxGraphModel>
  </diagram>
</mxfile>
